PathFileType	4	(X/Y/Z)	C:/Users/opensim2020/Desktop/walking_exp_matlab/subject01_walking12_straight_04.trc																																																																																																																																		
DataRate	CameraRate	NumFrames	NumMarkers	Units	OrigDataRate	OrigDataStartFrame	OrigNumFrames																																																																																																																														
100	100	7	44	mm	100	2522	172																																																																																																																														
Frame#	Time	LFHD			RFHD			LBHD			RBHD			C7			T10			CLAV			STRN			RBAK			LSHO			LUPA			LELB			LFRM			LWRA			LWRB			LFIN			RSHO			RUPA			RELB			RFRM			RWRA			RWRB			RFIN			LASI			RASI			LPSI			RPSI			LTHI			LKNE			LTIB			LANK			LHEE			LTOE			RTHI			RKNE			RTIB			RANK			RHEE			RTOE			*39			*40			*41			*42			*43		
		X1	Y1	Z1	X2	Y2	Z2	X3	Y3	Z3	X4	Y4	Z4	X5	Y5	Z5	X6	Y6	Z6	X7	Y7	Z7	X8	Y8	Z8	X9	Y9	Z9	X10	Y10	Z10	X11	Y11	Z11	X12	Y12	Z12	X13	Y13	Z13	X14	Y14	Z14	X15	Y15	Z15	X16	Y16	Z16	X17	Y17	Z17	X18	Y18	Z18	X19	Y19	Z19	X20	Y20	Z20	X21	Y21	Z21	X22	Y22	Z22	X23	Y23	Z23	X24	Y24	Z24	X25	Y25	Z25	X26	Y26	Z26	X27	Y27	Z27	X28	Y28	Z28	X29	Y29	Z29	X30	Y30	Z30	X31	Y31	Z31	X32	Y32	Z32	X33	Y33	Z33	X34	Y34	Z34	X35	Y35	Z35	X36	Y36	Z36	X37	Y37	Z37	X38	Y38	Z38	X39	Y39	Z39	X40	Y40	Z40	X41	Y41	Z41	X42	Y42	Z42	X43	Y43	Z43	X44	Y44	Z44
																																																																																																																																					
151	1.5	725.23059	1638.42102	-1506.54944	731.43951	1633.97864	-1392.35889	602.25024	1621.3656	-1509.16492	605.17786	1616.10449	-1388.28931	521.67059	1418.7467	-1479.10681	494.82727	1118.6842	-1470.46155	664.86414	1349.34094	-1472.5426	712.26953	1199.27637	-1482.1748	466.87607	1217.93896	-1406.56531	611.24579	1384.30579	-1636.19299	595.63007	1204.8313	-1728.95459	599.11499	1050.00146	-1740.65283	687.13623	970.88531	-1759.61853	814.66315	918.02496	-1739.13843	770.07617	882.35559	-1758.05798	845.94891	849.06848	-1770.86853	595.20331	1373.07568	-1322.15002	517.34387	1176.30176	-1231.71008	504.89709	1052.47437	-1231.95313	514.61713	932.34686	-1201.25586	577.1319	804.29578	-1218.44312	532.99683	812.45508	-1181.49048	556.62506	729.4646	-1183.2373	684.60083	920.70398	-1583.6842	703.55103	934.83722	-1366.15198	502.88693	919.59546	-1512.50403	516.54883	932.78912	-1367.94141	672.11981	585.74274	-1650.73499	667.17273	453.37402	-1651.40833	514.93964	352.66507	-1665.53564	336.64349	227.79401	-1618.27051	299.5878	247.04851	-1559.15149	354.66336	77.42854	-1624.86462	700.79541	600.15912	-1313.90308	731.60468	445.48627	-1347.58716	690.13965	272.00177	-1344.06738	671.77856	70.52413	-1400.01135	621.67188	33.9178	-1448.94604	811.88715	31.93869	-1403.86438	728.96704	1669.95837	-1412.90491	-1973.09448	1023.81305	3101.97803	-2012.51025	1021.93555	3140.66602	NaN	NaN	NaN	NaN	NaN	NaN
152	1.51	736.19415	1638.34729	-1505.13599	742.09424	1633.80151	-1390.94861	613.15533	1621.8064	-1508.10803	615.81134	1616.43884	-1387.16467	531.53534	1419.48303	-1478.04309	504.1871	1119.46338	-1468.75403	674.66278	1349.91553	-1471.90088	721.69183	1199.66382	-1481.25122	476.26471	1218.96704	-1405.04138	620.74719	1384.70898	-1635.48254	603.14984	1204.86414	-1727.36731	605.99976	1050.08313	-1738.44727	691.56458	968.40271	-1756.96057	817.51648	911.89258	-1736.36194	771.81494	877.33331	-1754.9635	846.73187	841.71698	-1767.40015	605.40344	1373.77112	-1321.18665	528.47992	1176.98828	-1230.07959	516.49738	1052.82983	-1230.02039	528.91376	932.76611	-1199.61475	594.47302	806.28223	-1217.58618	550.57172	813.18115	-1180.33679	576.4624	730.99103	-1182.14368	694.4798	921.84534	-1581.99548	712.26331	934.91418	-1364.29126	512.4599	920.16083	-1511.5022	525.52478	932.96802	-1366.86414	688.76941	588.06091	-1649.66565	687.55652	455.99307	-1650.31787	535.69281	355.30551	-1663.19861	357.79153	230.19469	-1615.99426	320.41147	247.29128	-1555.65881	378.01474	80.95815	-1628.08228	707.63373	599.59705	-1312.91516	735.89496	444.83978	-1346.84888	692.34998	271.68375	-1343.49072	672.12085	70.52099	-1400.01782	621.69012	33.98339	-1448.68542	812.18652	31.74758	-1403.99048	739.78357	1669.71448	-1411.42285	-1973.07007	1023.48151	3102.00659	-2012.54675	1022.0459	3140.74048	NaN	NaN	NaN	NaN	NaN	NaN
153	1.52	747.1037	1638.25818	-1503.89697	752.65326	1633.55432	-1389.59973	623.9798	1622.18542	-1507.20313	626.27838	1616.75061	-1386.27942	541.31787	1420.29578	-1477.05432	513.41278	1120.26147	-1467.25439	684.19879	1350.15454	-1471.1355	731.03192	1199.9375	-1480.27246	485.54785	1219.98816	-1403.62598	630.22278	1385.10144	-1634.71045	610.77667	1204.91345	-1725.78149	612.77759	1050.1825	-1736.31067	695.87604	966.10419	-1754.41907	820.0177	905.95331	-1733.60046	773.2713	872.4765	-1751.98389	847.17419	834.57294	-1764.05408	615.17731	1374.66992	-1320.46509	539.52045	1177.66858	-1228.43762	528.0481	1053.31738	-1228.05042	543.12872	933.19031	-1198.14514	612.21924	808.71143	-1216.53918	567.98181	814.20801	-1179.12646	596.1911	732.97034	-1181.0979	704.29626	923.02258	-1580.13159	721.12085	935.19904	-1362.19446	521.93945	920.88141	-1510.78723	534.09192	933.21661	-1366.24487	705.37463	590.48785	-1648.69385	707.56293	458.6456	-1649.22119	556.30743	357.61816	-1660.70801	379.26334	231.53233	-1613.91064	341.35843	246.42482	-1552.74207	402.77246	83.66623	-1630.25134	713.56226	599.45532	-1312.24072	740.00543	444.22998	-1346.10901	694.67566	271.64337	-1342.98804	672.45135	70.54739	-1400.04553	621.78827	34.1642	-1448.68066	812.40228	31.55814	-1404.14392	750.51898	1669.61084	-1410.16296	-1973.09192	1023.51111	3101.89185	-2012.48706	1022.06604	3140.8252	NaN	NaN	NaN	NaN	NaN	NaN
154	1.53	757.85333	1638.15247	-1502.76709	763.11987	1633.47778	-1388.48364	634.71808	1622.54236	-1506.41028	636.68988	1617.10486	-1385.47229	551.01459	1421.10242	-1476.08521	522.49121	1121.05969	-1465.99768	693.76587	1350.54089	-1470.29431	740.23657	1200.2085	-1479.24084	494.81445	1221.02832	-1402.22339	639.62543	1385.44995	-1633.90002	618.64648	1204.9928	-1724.32312	619.38849	1050.41235	-1734.18005	700.0448	963.97266	-1751.91565	822.16046	899.97528	-1730.75525	774.52441	867.90216	-1749.17053	847.32074	827.66791	-1760.63281	625.03864	1375.39343	-1319.59705	550.35278	1178.31714	-1226.86719	539.43591	1053.78979	-1226.10278	557.52472	933.71558	-1196.49365	629.8559	811.36218	-1215.68408	585.49762	815.29272	-1178.06934	616.26776	735.13031	-1179.9696	714.11206	924.14441	-1578.20056	729.94348	935.59113	-1360.03113	531.44916	921.5769	-1510.26245	542.76508	933.36975	-1365.72778	721.82306	592.92792	-1647.76746	727.06476	461.24179	-1648.09094	576.83612	359.53165	-1658.2157	400.91821	231.63741	-1612.02795	362.20892	244.48718	-1550.3241	429.04541	85.4028	-1631.6051	719.1286	599.16235	-1311.53174	744.13702	443.72192	-1345.44897	697.18195	271.41519	-1342.50244	672.60162	70.62164	-1400.04346	621.93958	34.32565	-1448.83728	812.58893	31.42175	-1404.27795	761.21698	1669.54175	-1409.02527	-1973.07312	1023.6416	3101.90527	-2012.54382	1022.13446	3140.70313	NaN	NaN	NaN	NaN	NaN	NaN
155	1.54	768.53149	1638.00232	-1501.724	773.42529	1633.34082	-1387.38196	645.35608	1622.83911	-1505.71326	646.97296	1617.44165	-1384.80054	560.65472	1421.82507	-1475.22363	531.47101	1121.85229	-1464.93909	703.18024	1350.97546	-1469.50061	749.34314	1200.43628	-1478.13965	504.06741	1222.03113	-1400.93225	648.99493	1385.8302	-1633.07654	626.70227	1205.172	-1722.98901	625.90326	1050.65295	-1731.99463	704.10303	962.01965	-1749.50122	824.09491	894.25226	-1727.91675	775.58795	863.56799	-1746.55188	847.25214	820.89874	-1757.38379	634.85767	1376.31616	-1318.63306	561.26276	1179.04504	-1225.22595	550.79675	1054.28845	-1224.11597	571.75378	934.33765	-1195.06055	647.18262	814.00201	-1214.85132	602.97235	816.7829	-1176.9762	636.34393	737.65088	-1178.93005	723.83209	925.19177	-1576.21753	738.67535	936.00977	-1357.74341	540.9751	922.35095	-1510.02698	551.32422	933.72009	-1365.53967	738.11908	595.31171	-1646.82361	746.07001	463.81583	-1647.01575	597.16565	361.15378	-1655.88318	422.92651	230.74376	-1610.32214	383.30661	241.54803	-1548.51367	457.06195	86.36784	-1631.98694	724.53577	598.89764	-1310.71606	748.00201	443.06329	-1344.80505	699.68835	271.23911	-1342.05579	673.27386	70.38344	-1399.62878	621.60181	34.26036	-1448.67065	812.66443	31.2106	-1404.40686	771.76355	1669.42261	-1407.98987	-1973.17615	1023.49164	3101.79297	-2012.5719	1022.07452	3140.80054	NaN	NaN	NaN	NaN	NaN	NaN
156	1.55	779.10315	1637.82898	-1500.80078	783.6322	1633.2821	-1386.45459	655.92737	1623.10803	-1505.13062	657.10254	1617.88599	-1384.20959	570.24664	1422.48706	-1474.3678	540.61047	1122.49133	-1463.8656	712.59662	1351.28198	-1468.64258	758.5799	1200.72388	-1477.07678	513.2514	1222.979	-1399.69275	658.40424	1386.17639	-1632.23389	634.88684	1205.36462	-1721.89832	632.21344	1050.90076	-1729.81006	708.13873	960.13611	-1747.1394	825.93579	888.63641	-1725.17444	776.4538	859.47327	-1744.02649	846.89697	814.43646	-1754.25635	644.42072	1377.11365	-1318.0437	571.95703	1179.90906	-1223.49243	562.06561	1054.73914	-1222.20203	586.09375	935.06097	-1193.57336	664.30267	816.73627	-1214.17017	620.68854	818.46344	-1176.09326	656.33319	740.53326	-1177.83203	733.08813	925.72528	-1574.11829	747.29779	936.41498	-1355.47449	550.47919	923.02063	-1509.88916	559.81354	934.09302	-1365.45142	754.23004	597.6037	-1645.92969	764.68024	466.28995	-1645.88416	617.10321	362.56287	-1653.78992	445.56915	228.57317	-1608.97302	404.16635	237.07591	-1547.14636	486.85364	86.87788	-1631.6012	729.67841	598.745	-1309.87512	751.69531	442.46243	-1344.03625	702.14038	270.99893	-1341.5896	673.39648	70.4296	-1399.49683	621.91736	34.78805	-1448.90698	812.49078	31.04001	-1404.17151	782.17761	1669.30542	-1407.10291	-1973.09045	1023.59094	3102.07715	-2012.51001	1021.98969	3140.53442	NaN	NaN	NaN	NaN	NaN	NaN
157	1.56	789.5943	1637.61926	-1499.90222	793.77832	1633.16528	-1385.51746	666.36096	1623.32715	-1504.6333	667.13611	1618.23401	-1383.68286	579.74536	1423.01953	-1473.52368	549.5957	1123.11462	-1462.98804	722.01337	1351.65552	-1467.83716	767.73352	1200.99976	-1475.99146	522.48108	1223.81128	-1398.43616	667.81281	1386.46509	-1631.42163	643.18048	1205.55347	-1720.896	638.43756	1051.15137	-1727.61194	711.96179	958.33911	-1744.86365	827.44452	883.17731	-1722.34033	777.25311	855.60675	-1741.7052	846.38861	808.18121	-1751.17078	653.85864	1378.06384	-1317.33044	582.46777	1180.62512	-1221.97485	573.22015	1055.17004	-1220.32251	600.34094	935.84503	-1192.18506	681.70453	819.88922	-1213.4552	638.51837	820.17834	-1175.19824	676.31848	743.60681	-1176.86951	743.18762	926.45239	-1572.59387	755.83746	936.81128	-1353.25464	559.95667	923.6861	-1509.97864	568.22595	934.48218	-1365.43872	770.20447	599.92957	-1645.04529	782.86682	468.77884	-1644.73743	636.82471	363.78217	-1651.85229	468.86923	225.08771	-1607.62073	425.79208	231.75613	-1546.59741	517.68408	86.55407	-1630.48608	734.5813	598.63763	-1308.98645	755.01892	441.80341	-1343.21863	704.30005	270.80798	-1341.10364	673.57874	70.64185	-1399.33704	621.81519	34.89334	-1448.70447	812.52869	30.93188	-1404.14697	792.44299	1669.22302	-1406.28027	-1973.01465	1023.87994	3102.0354	-2012.49487	1022.01947	3140.68335	NaN	NaN	NaN	NaN	NaN	NaN
